<svg xmlns="http://www.w3.org/2000/svg" xmlns:xlink="http://www.w3.org/1999/xlink" width="1256" height="116pt" viewBox="0 0 942.43 116"><g id="graph0" class="graph" transform="scale(1 1) rotate(0) translate(4 112)"><title>%3</title><polygon fill="#fff" stroke="none" points="-4 4 -4 -112 938.432 -112 938.432 4 -4 4"/><g id="node1" class="node"><title>PotentialComputation</title><ellipse cx="540.754" cy="-90" fill="none" stroke="#000" rx="87.959" ry="18"/><text x="540.754" y="-85.8" font-family="Times,serif" font-size="14" text-anchor="middle">PotentialComputation</text></g><g id="node2" class="node"><title>CutoffComputation{T&lt;:ShortRangePotential}</title><ellipse cx="173.754" cy="-18" fill="none" stroke="#000" rx="173.509" ry="18"/><text x="173.754" y="-13.8" font-family="Times,serif" font-size="14" text-anchor="middle">CutoffComputation{T&lt;:ShortRangePotential}</text></g><g id="edge1" class="edge"><title>PotentialComputation-&gt;CutoffComputation{T&lt;:ShortRangePotential}</title><path fill="none" stroke="#000" d="M478.913,-77.2046C419.746,-65.9195 329.868,-48.7764 262.958,-36.0143"/><polygon fill="#000" stroke="#000" points="263.321 -32.52 252.842 -34.085 262.009 -39.397 263.321 -32.52"/></g><g id="node3" class="node"><title>DirectComputation</title><ellipse cx="443.754" cy="-18" fill="none" stroke="#000" rx="78.269" ry="18"/><text x="443.754" y="-13.8" font-family="Times,serif" font-size="14" text-anchor="middle">DirectComputation</text></g><g id="edge2" class="edge"><title>PotentialComputation-&gt;DirectComputation</title><path fill="none" stroke="#000" d="M517.766,-72.411C504.962,-63.1703 488.84,-51.536 474.914,-41.4867"/><polygon fill="#000" stroke="#000" points="476.734 -38.484 466.577 -35.47 472.638 -44.16 476.734 -38.484"/></g><g id="node4" class="node"><title>LongRangeComputation</title><ellipse cx="637.754" cy="-18" fill="none" stroke="#000" rx="97.597" ry="18"/><text x="637.754" y="-13.8" font-family="Times,serif" font-size="14" text-anchor="middle">LongRangeComputation</text></g><g id="edge3" class="edge"><title>PotentialComputation-&gt;LongRangeComputation</title><path fill="none" stroke="#000" d="M563.742,-72.411C576.454,-63.2373 592.435,-51.7045 606.291,-41.7054"/><polygon fill="#000" stroke="#000" points="608.534 -44.403 614.595 -35.712 604.438 -38.726 608.534 -44.403"/></g><g id="node5" class="node"><title>TableComputation{N}</title><ellipse cx="843.754" cy="-18" fill="none" stroke="#000" rx="90.857" ry="18"/><text x="843.754" y="-13.8" font-family="Times,serif" font-size="14" text-anchor="middle">TableComputation{N}</text></g><g id="edge4" class="edge"><title>PotentialComputation-&gt;TableComputation{N}</title><path fill="none" stroke="#000" d="M596.682,-76.0793C647.712,-64.2903 723.192,-46.8525 777.285,-34.356"/><polygon fill="#000" stroke="#000" points="778.17 -37.744 787.125 -32.083 776.594 -30.923 778.17 -37.744"/></g></g></svg>