<svg xmlns="http://www.w3.org/2000/svg" xmlns:xlink="http://www.w3.org/1999/xlink" width="811pt" height="260pt" viewBox="0 0 811.4 260"><g id="graph0" class="graph" transform="scale(1 1) rotate(0) translate(4 256)"><title>%3</title><polygon fill="#fff" stroke="none" points="-4 4 -4 -256 807.404 -256 807.404 4 -4 4"/><g id="node1" class="node"><title>PotentialFunction</title><ellipse cx="293.159" cy="-234" fill="none" stroke="#000" rx="72.983" ry="18"/><text x="293.159" y="-229.8" font-family="Times,serif" font-size="14" text-anchor="middle">PotentialFunction</text></g><g id="node2" class="node"><title>AnglePotential</title><ellipse cx="63.159" cy="-162" fill="none" stroke="#000" rx="63.318" ry="18"/><text x="63.159" y="-157.8" font-family="Times,serif" font-size="14" text-anchor="middle">AnglePotential</text></g><g id="edge1" class="edge"><title>PotentialFunction-&gt;AnglePotential</title><path fill="none" stroke="#000" d="M249.085,-219.586C210.645,-207.887 154.858,-190.908 114.43,-178.604"/><polygon fill="#000" stroke="#000" points="115.347 -175.225 104.761 -175.661 113.308 -181.921 115.347 -175.225"/></g><g id="node3" class="node"><title>BondedPotential</title><ellipse cx="213.159" cy="-162" fill="none" stroke="#000" rx="69.115" ry="18"/><text x="213.159" y="-157.8" font-family="Times,serif" font-size="14" text-anchor="middle">BondedPotential</text></g><g id="edge2" class="edge"><title>PotentialFunction-&gt;BondedPotential</title><path fill="none" stroke="#000" d="M274.2,-216.411C263.839,-207.345 250.844,-195.974 239.51,-186.057"/><polygon fill="#000" stroke="#000" points="241.812 -183.421 231.982 -179.47 237.203 -188.689 241.812 -183.421"/></g><g id="node5" class="node"><title>DihedralPotential</title><ellipse cx="373.159" cy="-162" fill="none" stroke="#000" rx="72.472" ry="18"/><text x="373.159" y="-157.8" font-family="Times,serif" font-size="14" text-anchor="middle">DihedralPotential</text></g><g id="edge4" class="edge"><title>PotentialFunction-&gt;DihedralPotential</title><path fill="none" stroke="#000" d="M312.118,-216.411C322.479,-207.345 335.474,-195.974 346.808,-186.057"/><polygon fill="#000" stroke="#000" points="349.115 -188.689 354.336 -179.47 344.506 -183.421 349.115 -188.689"/></g><g id="node6" class="node"><title>PairPotential</title><ellipse cx="519.159" cy="-162" fill="none" stroke="#000" rx="55.585" ry="18"/><text x="519.159" y="-157.8" font-family="Times,serif" font-size="14" text-anchor="middle">PairPotential</text></g><g id="edge5" class="edge"><title>PotentialFunction-&gt;PairPotential</title><path fill="none" stroke="#000" d="M336.734,-219.503C375.046,-207.637 430.741,-190.386 470.5,-178.072"/><polygon fill="#000" stroke="#000" points="471.727 -181.355 480.244 -175.053 469.656 -174.669 471.727 -181.355"/></g><g id="node4" class="node"><title>Harmonic</title><ellipse cx="213.159" cy="-90" fill="none" stroke="#000" rx="45.435" ry="18"/><text x="213.159" y="-85.8" font-family="Times,serif" font-size="14" text-anchor="middle">Harmonic</text></g><g id="edge3" class="edge"><title>BondedPotential-&gt;Harmonic</title><path fill="none" stroke="#000" d="M213.159,-143.697C213.159,-135.983 213.159,-126.712 213.159,-118.112"/><polygon fill="#000" stroke="#000" points="216.659 -118.104 213.159 -108.104 209.659 -118.104 216.659 -118.104"/></g><g id="node7" class="node"><title>LongRangePotential</title><ellipse cx="361.159" cy="-90" fill="none" stroke="#000" rx="82.613" ry="18"/><text x="361.159" y="-85.8" font-family="Times,serif" font-size="14" text-anchor="middle">LongRangePotential</text></g><g id="edge6" class="edge"><title>PairPotential-&gt;LongRangePotential</title><path fill="none" stroke="#000" d="M487.565,-147.003C463.985,-136.556 431.462,-122.147 405.311,-110.561"/><polygon fill="#000" stroke="#000" points="406.554 -107.284 395.993 -106.433 403.718 -113.684 406.554 -107.284"/></g><g id="node8" class="node"><title>NullPotential</title><ellipse cx="519.159" cy="-90" fill="none" stroke="#000" rx="57.039" ry="18"/><text x="519.159" y="-85.8" font-family="Times,serif" font-size="14" text-anchor="middle">NullPotential</text></g><g id="edge7" class="edge"><title>PairPotential-&gt;NullPotential</title><path fill="none" stroke="#000" d="M519.159,-143.697C519.159,-135.983 519.159,-126.712 519.159,-118.112"/><polygon fill="#000" stroke="#000" points="522.659 -118.104 519.159 -108.104 515.659 -118.104 522.659 -118.104"/></g><g id="node9" class="node"><title>ShortRangePotential</title><ellipse cx="678.159" cy="-90" fill="none" stroke="#000" rx="83.106" ry="18"/><text x="678.159" y="-85.8" font-family="Times,serif" font-size="14" text-anchor="middle">ShortRangePotential</text></g><g id="edge8" class="edge"><title>PairPotential-&gt;ShortRangePotential</title><path fill="none" stroke="#000" d="M550.953,-147.003C574.683,-136.556 607.411,-122.147 633.727,-110.561"/><polygon fill="#000" stroke="#000" points="635.362 -113.666 643.104 -106.433 632.542 -107.259 635.362 -113.666"/></g><g id="node10" class="node"><title>LennardJones</title><ellipse cx="610.159" cy="-18" fill="none" stroke="#000" rx="59.443" ry="18"/><text x="610.159" y="-13.8" font-family="Times,serif" font-size="14" text-anchor="middle">LennardJones</text></g><g id="edge9" class="edge"><title>ShortRangePotential-&gt;LennardJones</title><path fill="none" stroke="#000" d="M661.698,-72.055C653.262,-63.3707 642.842,-52.6444 633.584,-43.114"/><polygon fill="#000" stroke="#000" points="635.947 -40.523 626.468 -35.789 630.926 -45.401 635.947 -40.523"/></g><g id="node11" class="node"><title>UserPotential</title><ellipse cx="745.159" cy="-18" fill="none" stroke="#000" rx="58.491" ry="18"/><text x="745.159" y="-13.8" font-family="Times,serif" font-size="14" text-anchor="middle">UserPotential</text></g><g id="edge10" class="edge"><title>ShortRangePotential-&gt;UserPotential</title><path fill="none" stroke="#000" d="M694.378,-72.055C702.69,-63.3707 712.957,-52.6444 722.078,-43.114"/><polygon fill="#000" stroke="#000" points="724.703 -45.433 729.09 -35.789 719.646 -40.593 724.703 -45.433"/></g></g></svg>